# xmcd
#
# Track frame offsets:
#	150
#	16472
#	26612
#	36450
#	45995
#	58675
#	73732
#	87357
#	99365
#	108320
#	121572
#	133320
#	141772
#	153285
#	161415
#	175425
#	192290
#	205867
# Disc length: 2891 seconds
# Revision: 1
# Processed by: cddbd v1.5PL3 Copyright (c) Steve Scherf et al.
#
# Submitted via: libkcddb 0.10
#
DISCID=f40b4912
DTITLE=Willie Nelson - The Natural Collection
DYEAR=1996
DGENRE=
TTITLE0=Pretty Paper
TTITLE1=Pride Wins Again
TTITLE2=Let's Pretend
TTITLE3=I'm Building Heartaches
TTITLE4=Any Old Arms Won't Do
TTITLE5=And so Will You Me Love
TTITLE6=Everything But You
TTITLE7=Happiness Lives Next Door
TTITLE8=Why Are You Picking On Me?
TTITLE9=I Just Don't Understand
TTITLE10=I'll Stay Around
TTITLE11=Slow Down Old World
TTITLE12=Suffering In Silence
TTITLE13=Things To Remember
TTITLE14=Will You Remember Mine
TTITLE15=I Let My Mind Wonder
TTITLE16=The Last Letter
TTITLE17=Go Away
EXTD=
EXTT0=
EXTT1=
EXTT2=
EXTT3=
EXTT4=
EXTT5=
EXTT6=
EXTT7=
EXTT8=
EXTT9=
EXTT10=
EXTT11=
EXTT12=
EXTT13=
EXTT14=
EXTT15=
EXTT16=
EXTT17=
PLAYORDER=
